# xmcd
#
# Track frame offsets:
#	150
#	7038
#	12570
#	20678
#	26773
#	37045
#	44058
#	50220
#	57658
#	67740
#	75525
#	81038
#	89180
#	94388
#	104310
#	110940
#	118980
#	133933
#	145578
#	154930
#	159260
#	164303
#	172860
#	180790
#	188320
#	204818
#	213413
#	219568
#	225020
#	236200
#	243023
#	254493
#
# Disc length: 3657 seconds
#
# Revision: 1
# Processed by: cddbd v1.5.1PL0 Copyright (c) Steve Scherf et al.
# Submitted via: CDex 1.50Beta5
#
DISCID=bc0e4720
DTITLE=さまざまなアーティスト - DEATH ROW MIX BY PMX
DYEAR=1900
DGENRE=
TTITLE0=INTRO
TTITLE1=TO LIVE AND DIE IN L.A./Makaveli feat. Val Young
TTITLE2=LET ME RIDE/Dr.Dre
TTITLE3=LET'S PLAY HOUSE/THA DOGG POUND
TTITLE4=ONLY FOR U/Daz Dillinger feat.Lady"V"&Big Pimpin'
TTITLE5=KEEP THEIR HEADS RINGIN'/Dr.Dre
TTITLE6=GIN AND JUICE/Snoop Doggy Dogg
TTITLE7=AFRO PUFFS/The Lady Of Rage
TTITLE8=NATURAL BORN KILLAZ/Dr.Dre&Ice Cube
TTITLE9=THE DAY THE NIGGAZ TOOK OVER/Dr.Dre
TTITLE10=WHO AM I(WHAT'S MY NAME)?/Snoop Doggy Dogg
TTITLE11=CAN'T C ME/2Pac feat.George Clinton
TTITLE12=THA SHIZNIT/Snoop Doggy Dogg
TTITLE13=NUTHIN'BUT A G THANG/Dr.Dre
TTITLE14=I DON'T LIKE TO DREAM ABOUT GETTIN PAID/Tha Dogg Pound feat.Nate Dogg
TTITLE15=HOW DO U WANT IT/2Pac feat.K-CI&JOJO
TTITLE16=CALIFORNIA LOVE(REMIX)/2Pac feat.Dr.Dre&Roger Troutman
TTITLE17=GOING BACK TO CALI/Y.G.D."The Top Dawg"
TTITLE18=SNOOP'S UPSIDE YA HEAD(REMIX)/Snoop Doggy Dogg
TTITLE19=SHO SHOT/The Lady Of Rage
TTITLE20=LOST SOULS/2Pac feat.Outlawz
TTITLE21=REGULATE/Nate Dogg&WarrenG
TTITLE22=CHECK OUT TIME/2Pac feat.Kurupt&Big Syke
TTITLE23=JUMPSTREET/Snoop Doggy Dogg&Tray Deee
TTITLE24=AIN'T NO FUN/Snoop Doggy Dogg
TTITLE25=IN CALIFORNIA/Das Dillinger feat.Lady"V"
TTITLE26=ALL ABOUT U/2Pac feat.Snoop,Nate Doog,Fatal&Yaki Kadafi
TTITLE27=WHO BEEN THERE,WHO DONE THAT?/J-Flex
TTITLE28=WANTED DEAD OR ALIVE/2Pac&Snoop Doggy Dogg
TTITLE29=WAY TOO MAJOR/Das Dillinger feat.Tray Deee
TTITLE30=WHAT WOULD YOU DO?/Tha Dogg Pound
TTITLE31=JUST DOGGIN/Tha Dogg Pound feat.Nate Doog
EXTD=
EXTT0=
EXTT1=
EXTT2=
EXTT3=
EXTT4=
EXTT5=
EXTT6=
EXTT7=
EXTT8=
EXTT9=
EXTT10=
EXTT11=
EXTT12=
EXTT13=
EXTT14=
EXTT15=
EXTT16=
EXTT17=
EXTT18=
EXTT19=
EXTT20=
EXTT21=
EXTT22=
EXTT23=
EXTT24=
EXTT25=
EXTT26=
EXTT27=
EXTT28=
EXTT29=
EXTT30=
EXTT31=
PLAYORDER=
